<?xml version="1.0" standalone="no"?>
<!DOCTYPE svg PUBLIC "-//W3C//DTD SVG 20010904//EN"
 "http://www.w3.org/TR/2001/REC-SVG-20010904/DTD/svg10.dtd">
<svg version="1.0" xmlns="http://www.w3.org/2000/svg"
 width="1344.000000pt" height="1349.000000pt" viewBox="0 0 1344.000000 1349.000000"
 preserveAspectRatio="xMidYMid meet">
<metadata>
Created by potrace 1.16, written by Peter Selinger 2001-2019
</metadata>
<g transform="translate(0.000000,1349.000000) scale(0.100000,-0.100000)"
fill="#000000" stroke="none">
<path d="M10785 12002 c-82 -81 -199 -187 -260 -236 -279 -224 -604 -405 -915
-512 -675 -230 -1227 -523 -1700 -900 -160 -128 -434 -398 -546 -539 -205
-258 -359 -521 -434 -746 -20 -58 -20 -97 -20 -3894 0 -3353 2 -3835 15 -3835
40 0 587 253 890 413 1558 820 2688 1836 3204 2882 139 281 239 544 341 895
305 1055 469 2537 470 4240 0 392 -16 1089 -25 1117 -2 7 -53 -38 -112 -99
-132 -136 -330 -310 -483 -427 -117 -89 -263 -191 -267 -187 -1 1 3 94 9 207
22 394 13 1770 -11 1769 -3 0 -73 -67 -156 -148z m-415 -1347 c-9 -276 -23
-545 -36 -720 l-6 -81 -112 -38 c-899 -305 -1636 -707 -2226 -1216 -112 -96
-364 -346 -448 -444 l-42 -49 0 405 0 405 49 100 c112 228 249 412 475 638
445 443 985 759 1781 1040 208 74 342 131 480 203 50 26 91 47 92 47 1 -1 -2
-131 -7 -290z m866 -1327 c-41 -1987 -308 -3557 -756 -4448 -453 -901 -1493
-1829 -2872 -2564 l-108 -58 0 2366 0 2366 46 104 c156 356 488 773 873 1095
533 445 1139 770 1990 1066 280 97 514 206 728 339 49 30 92 54 97 55 6 1 6
-129 2 -321z"/>
<path d="M1626 10813 c-3 -49 -9 -322 -13 -609 l-6 -521 1784 -893 c981 -491
1810 -910 1842 -932 230 -156 425 -446 509 -758 l23 -85 2 -2670 3 -2671 68
-33 c203 -102 649 -301 672 -301 7 0 10 1144 10 3319 l0 3318 -24 94 c-57 222
-198 436 -376 572 -47 35 -679 356 -2272 1153 -1214 607 -2209 1104 -2211
1104 -3 0 -7 -39 -11 -87z"/>
<path d="M1614 9093 c3 -32 8 -148 11 -258 4 -110 13 -303 20 -430 8 -126 15
-233 15 -237 0 -5 570 -293 1268 -642 758 -379 1291 -652 1327 -678 187 -138
358 -372 440 -602 75 -209 69 -26 72 -2121 l3 -1880 48 -30 c160 -99 457 -275
464 -275 5 0 7 1140 6 2532 l-3 2533 -27 74 c-40 110 -114 225 -199 312 l-76
77 -1681 841 c-925 463 -1684 841 -1687 841 -3 0 -4 -26 -1 -57z"/>
<path d="M1710 7588 c0 -74 72 -637 121 -949 l12 -76 672 -335 c712 -356 770
-390 886 -516 158 -170 265 -360 327 -582 l27 -95 3 -1022 3 -1021 127 -105
c70 -57 188 -150 262 -207 l135 -102 3 1692 c2 1515 0 1698 -14 1753 -36 141
-124 286 -234 391 -69 65 -86 74 -1200 631 -1012 506 -1130 563 -1130 543z"/>
<path d="M1970 5953 c0 -29 95 -387 145 -548 193 -621 410 -1043 774 -1510
138 -176 375 -445 393 -445 5 0 8 306 6 768 l-3 767 -28 80 c-53 150 -155 300
-259 381 -42 33 -1001 524 -1023 524 -3 0 -5 -8 -5 -17z"/>
</g>
</svg>
